<svg width="14" height="14" viewBox="0 0 14 14" fill="none" xmlns="http://www.w3.org/2000/svg">
<path fill-rule="evenodd" clip-rule="evenodd" d="M5.23399 6.71094L0.204936 1.68188C-0.0684313 1.40852 -0.0684313 0.965301 0.204936 0.691934L0.690957 0.205912C0.964324 -0.0674548 1.40754 -0.0674553 1.68091 0.205912L6.70996 5.23497L11.739 0.205912C12.0124 -0.0674547 12.4556 -0.0674547 12.729 0.205912L13.215 0.691934C13.4884 0.965301 13.4884 1.40852 13.215 1.68188L8.18593 6.71094L13.215 11.74C13.4884 12.0134 13.4884 12.4566 13.215 12.7299L12.729 13.216C12.4556 13.4893 12.0124 13.4893 11.739 13.216L6.70996 8.18691L1.68091 13.216C1.40754 13.4893 0.964324 13.4893 0.690957 13.216L0.204936 12.7299C-0.0684312 12.4566 -0.0684318 12.0134 0.204935 11.74L5.23399 6.71094Z" fill="#848484"/>
</svg>
