<svg width="25" height="24" viewBox="0 0 25 24" fill="none" xmlns="http://www.w3.org/2000/svg">
<path d="M11.8013 0.346337C11.951 -0.114318 12.6027 -0.114318 12.7524 0.346338L15.3078 8.21108C15.3747 8.41709 15.5667 8.55657 15.7833 8.55657H24.0528C24.5372 8.55657 24.7386 9.17638 24.3467 9.46108L17.6565 14.3218C17.4813 14.4491 17.408 14.6748 17.4749 14.8808L20.0303 22.7455C20.18 23.2062 19.6528 23.5892 19.2609 23.3045L12.5707 18.4439C12.3955 18.3165 12.1582 18.3165 11.983 18.4439L5.29281 23.3045C4.90095 23.5892 4.37371 23.2062 4.52339 22.7455L7.0788 14.8808C7.14574 14.6748 7.07241 14.4491 6.89716 14.3218L0.207012 9.46108C-0.184845 9.17638 0.0165435 8.55657 0.500905 8.55657H8.77039C8.987 8.55657 9.17898 8.41709 9.24592 8.21108L11.8013 0.346337Z" fill="#FFAE00"/>
</svg>
