<svg width="48" height="48" viewBox="0 0 48 48" fill="none" xmlns="http://www.w3.org/2000/svg">
<path d="M24.07 34.024C24.07 32.4327 23.4379 30.9066 22.3126 29.7814C21.1874 28.6561 19.6613 28.024 18.07 28.024L17.448 28.02C17.1639 28.0183 16.8867 27.9327 16.6512 27.7739C16.4157 27.615 16.2325 27.3901 16.1245 27.1273C16.0165 26.8646 15.9887 26.5758 16.0445 26.2972C16.1003 26.0187 16.2372 25.7629 16.438 25.562L18.828 23.172C19.578 22.4218 20.5952 22.0002 21.656 22H24C25.0609 22 26.0783 21.5786 26.8284 20.8284C27.5786 20.0783 28 19.0609 28 18C28 16.9391 27.5786 15.9217 26.8284 15.1716C26.0783 14.4214 25.0609 14 24 14H18.486C17.6978 13.9999 16.9173 14.1551 16.1891 14.4568C15.4609 14.7584 14.7993 15.2006 14.242 15.758L8.828 21.172C7.01754 22.9832 6.00035 25.4391 6 28C6 32.2435 7.68571 36.3131 10.6863 39.3137C13.6869 42.3143 17.7565 44 22 44H26C30.2435 44 34.3131 42.3143 37.3137 39.3137C40.3143 36.3131 42 32.2435 42 28V14C42 12.9391 41.5786 11.9217 40.8284 11.1716C40.0783 10.4214 39.0609 10 38 10C36.9391 10 35.9217 10.4214 35.1716 11.1716C34.4214 11.9217 34 12.9391 34 14V18C34 19.0609 34.4214 20.0783 35.1716 20.8284C35.9217 21.5786 36.9391 22 38 22C39.0609 22 40.0783 21.5786 40.8284 20.8284C41.5786 20.0783 42 19.0609 42 18M27.776 19.324C28.3782 19.7268 29.0784 19.9585 29.802 19.9944C30.5256 20.0302 31.2453 19.8689 31.8844 19.5276C32.5234 19.1863 33.0578 18.6779 33.4304 18.0566C33.803 17.4353 33.9999 16.7245 34 16V10C34 8.93913 33.5786 7.92172 32.8284 7.17157C32.0783 6.42143 31.0609 6 30 6C28.9391 6 27.9217 6.42143 27.1716 7.17157C26.4214 7.92172 26 8.93913 26 10M18 10C18 8.93913 17.5786 7.92172 16.8284 7.17157C16.0783 6.42143 15.0609 6 14 6C12.9391 6 11.9217 6.42143 11.1716 7.17157C10.4214 7.92172 10 8.93913 10 10V20M18 14V8C18 6.93913 18.4214 5.92172 19.1716 5.17157C19.9217 4.42143 20.9391 4 22 4C23.0609 4 24.0783 4.42143 24.8284 5.17157C25.5786 5.92172 26 6.93913 26 8V14.536" stroke="#0891B2" stroke-width="3" stroke-linecap="round" stroke-linejoin="round"/>
</svg>
