<svg width="48" height="48" viewBox="0 0 48 48" fill="none" xmlns="http://www.w3.org/2000/svg">
<path d="M24 15.9999V41.9999M24 15.9999C23.2766 13.0187 22.0309 10.47 20.4255 8.68622C18.8201 6.90242 16.9294 5.96628 15 5.9999C13.6739 5.9999 12.4021 6.52668 11.4645 7.46436C10.5268 8.40205 10 9.67382 10 10.9999C10 12.326 10.5268 13.5977 11.4645 14.5354C12.4021 15.4731 13.6739 15.9999 15 15.9999M24 15.9999C24.7234 13.0187 25.9691 10.47 27.5745 8.68622C29.1799 6.90242 31.0706 5.96628 33 5.9999C34.3261 5.9999 35.5979 6.52668 36.5355 7.46436C37.4732 8.40205 38 9.67382 38 10.9999C38 12.326 37.4732 13.5977 36.5355 14.5354C35.5979 15.4731 34.3261 15.9999 33 15.9999M38 23.9999V37.9999C38 39.0608 37.5786 40.0782 36.8284 40.8283C36.0783 41.5785 35.0609 41.9999 34 41.9999H14C12.9391 41.9999 11.9217 41.5785 11.1716 40.8283C10.4214 40.0782 10 39.0608 10 37.9999V23.9999M8 15.9999H40C41.1046 15.9999 42 16.8953 42 17.9999V21.9999C42 23.1045 41.1046 23.9999 40 23.9999H8C6.89543 23.9999 6 23.1045 6 21.9999V17.9999C6 16.8953 6.89543 15.9999 8 15.9999Z" stroke="#0891B2" stroke-width="3" stroke-linecap="round" stroke-linejoin="round"/>
</svg>
