<svg width="48" height="48" viewBox="0 0 48 48" fill="none" xmlns="http://www.w3.org/2000/svg">
<path d="M21.0002 6L16.0002 18L24.0002 44M24.0002 44L32.0002 18L27.0002 6M24.0002 44C24.6346 44 25.2589 43.8491 25.8234 43.5598C26.388 43.2704 26.8757 42.851 27.2462 42.336L43.2262 20.364C43.7332 19.6721 44.0044 18.8355 43.9998 17.9777C43.9951 17.1199 43.7148 16.2863 43.2002 15.6L37.2002 7.6C36.8276 7.10322 36.3444 6.7 35.789 6.42229C35.2336 6.14458 34.6212 6 34.0002 6H14.0002C13.378 6.00008 12.7644 6.14528 12.2082 6.42408C11.652 6.70287 11.1685 7.10757 10.7962 7.606L4.80018 15.6C4.2853 16.2861 4.00462 17.1196 3.99958 17.9774C3.99454 18.8352 4.2654 19.6719 4.77218 20.364L20.7522 42.336C21.1227 42.851 21.6103 43.2704 22.1749 43.5598C22.7395 43.8491 23.3658 44 24.0002 44ZM4.00018 18H44.0002" stroke="#0891B2" stroke-width="3" stroke-linecap="round" stroke-linejoin="round"/>
</svg>
