<svg width="48" height="48" viewBox="0 0 48 48" fill="none" xmlns="http://www.w3.org/2000/svg">
<path d="M12 36H8C6.93913 36 5.92172 35.5786 5.17157 34.8284C4.42143 34.0783 4 33.0609 4 32V22C4 20.9391 4.42143 19.9217 5.17157 19.1716C5.92172 18.4214 6.93913 18 8 18H40C41.0609 18 42.0783 18.4214 42.8284 19.1716C43.5786 19.9217 44 20.9391 44 22V32C44 33.0609 43.5786 34.0783 42.8284 34.8284C42.0783 35.5786 41.0609 36 40 36H36M12 18V6C12 5.46957 12.2107 4.96086 12.5858 4.58579C12.9609 4.21071 13.4696 4 14 4H34C34.5304 4 35.0391 4.21071 35.4142 4.58579C35.7893 4.96086 36 5.46957 36 6V18M14 28H34C35.1046 28 36 28.8954 36 30V42C36 43.1046 35.1046 44 34 44H14C12.8954 44 12 43.1046 12 42V30C12 28.8954 12.8954 28 14 28Z" stroke="#0891B2" stroke-width="3" stroke-linecap="round" stroke-linejoin="round"/>
</svg>
