<svg width="28" height="28" viewBox="0 0 28 28" fill="none" xmlns="http://www.w3.org/2000/svg">
<path d="M25.0833 0H2.91667C2.14312 0 1.40125 0.307291 0.854272 0.854272C0.307291 1.40125 0 2.14312 0 2.91667L0 25.0833C0 25.4664 0.0754418 25.8456 0.222018 26.1995C0.368594 26.5534 0.583434 26.8749 0.854272 27.1457C1.12511 27.4166 1.44664 27.6314 1.80051 27.778C2.15437 27.9246 2.53364 28 2.91667 28H25.0833C25.4664 28 25.8456 27.9246 26.1995 27.778C26.5534 27.6314 26.8749 27.4166 27.1457 27.1457C27.4166 26.8749 27.6314 26.5534 27.778 26.1995C27.9246 25.8456 28 25.4664 28 25.0833V2.91667C28 2.53364 27.9246 2.15437 27.778 1.80051C27.6314 1.44664 27.4166 1.12511 27.1457 0.854272C26.8749 0.583434 26.5534 0.368594 26.1995 0.222018C25.8456 0.0754418 25.4664 0 25.0833 0V0ZM2.91667 26.8333C2.45254 26.8333 2.00742 26.649 1.67923 26.3208C1.35104 25.9926 1.16667 25.5475 1.16667 25.0833V23.6017L10.5 14.2683L23.0942 26.8333H2.91667ZM26.8333 25.0833C26.8333 25.5475 26.649 25.9926 26.3208 26.3208C25.9926 26.649 25.5475 26.8333 25.0833 26.8333H24.7392L16.6542 18.7483L21.0817 14.3208L26.8333 20.0725V25.0833ZM26.8333 18.4275L21.49 13.0842C21.3807 12.9755 21.2329 12.9145 21.0787 12.9145C20.9246 12.9145 20.7768 12.9755 20.6675 13.0842L15.8317 17.92L10.9258 13.0142C10.8165 12.9055 10.6687 12.8445 10.5146 12.8445C10.3605 12.8445 10.2126 12.9055 10.1033 13.0142L1.16667 21.9508V2.91667C1.16667 2.45254 1.35104 2.00742 1.67923 1.67923C2.00742 1.35104 2.45254 1.16667 2.91667 1.16667H25.0833C25.5475 1.16667 25.9926 1.35104 26.3208 1.67923C26.649 2.00742 26.8333 2.45254 26.8333 2.91667V18.4275Z" fill="#0891B2"/>
<path d="M14.583 4.08398C13.8908 4.08398 13.2141 4.28926 12.6385 4.67384C12.0629 5.05843 11.6143 5.60505 11.3494 6.24459C11.0845 6.88413 11.0152 7.58787 11.1503 8.2668C11.2853 8.94573 11.6187 9.56937 12.1081 10.0589C12.5976 10.5483 13.2213 10.8817 13.9002 11.0167C14.5791 11.1518 15.2829 11.0825 15.9224 10.8176C16.5619 10.5527 17.1086 10.1041 17.4932 9.52848C17.8777 8.95291 18.083 8.27622 18.083 7.58398C18.083 6.65573 17.7143 5.76549 17.0579 5.10911C16.4015 4.45273 15.5113 4.08398 14.583 4.08398ZM14.583 9.91732C14.1215 9.91732 13.6704 9.78047 13.2867 9.52408C12.903 9.26769 12.6039 8.90327 12.4273 8.47691C12.2507 8.05055 12.2045 7.5814 12.2945 7.12877C12.3845 6.67615 12.6068 6.26039 12.9331 5.93407C13.2594 5.60775 13.6752 5.38552 14.1278 5.29549C14.5804 5.20545 15.0496 5.25166 15.4759 5.42827C15.9023 5.60487 16.2667 5.90394 16.5231 6.28765C16.7795 6.67137 16.9163 7.12249 16.9163 7.58398C16.9163 8.20282 16.6705 8.79632 16.2329 9.2339C15.7953 9.67148 15.2018 9.91732 14.583 9.91732Z" fill="#0891B2"/>
</svg>
