<svg width="16" height="16" viewBox="0 0 16 16" fill="none" xmlns="http://www.w3.org/2000/svg">
<path d="M9.22125 11.046C9.35894 11.1092 9.51405 11.1237 9.66105 11.0869C9.80804 11.0502 9.93814 10.9645 10.0299 10.844L10.2666 10.534C10.3908 10.3684 10.5518 10.234 10.737 10.1414C10.9221 10.0488 11.1263 10.0007 11.3333 10.0007H13.3333C13.6869 10.0007 14.026 10.1411 14.2761 10.3912C14.5261 10.6412 14.6666 10.9804 14.6666 11.334V13.334C14.6666 13.6876 14.5261 14.0267 14.2761 14.2768C14.026 14.5268 13.6869 14.6673 13.3333 14.6673C10.1507 14.6673 7.09841 13.403 4.84797 11.1526C2.59753 8.90216 1.33325 5.84992 1.33325 2.66732C1.33325 2.3137 1.47373 1.97456 1.72378 1.72451C1.97382 1.47446 2.31296 1.33398 2.66659 1.33398H4.66659C5.02021 1.33398 5.35935 1.47446 5.60939 1.72451C5.85944 1.97456 5.99992 2.3137 5.99992 2.66732V4.66732C5.99992 4.87431 5.95173 5.07846 5.85916 5.2636C5.76658 5.44874 5.63218 5.60979 5.46659 5.73398L5.15459 5.96798C5.0322 6.06144 4.94593 6.19437 4.91045 6.34422C4.87496 6.49406 4.89244 6.65157 4.95992 6.78998C5.87104 8.64056 7.36953 10.1372 9.22125 11.046Z" stroke="white" stroke-width="1.33333" stroke-linecap="round" stroke-linejoin="round"/>
</svg>
