<svg width="16" height="16" viewBox="0 0 16 16" fill="none" xmlns="http://www.w3.org/2000/svg">
<path d="M14.3049 1.63676C14.2274 1.56987 14.1332 1.52538 14.0323 1.50808C13.9314 1.49079 13.8277 1.50136 13.7324 1.53864L1.06616 6.49551C0.886654 6.56531 0.734679 6.69154 0.633117 6.85519C0.531555 7.01884 0.485903 7.21105 0.503036 7.40289C0.520168 7.59473 0.599157 7.77582 0.72811 7.91888C0.857063 8.06194 1.029 8.15925 1.21804 8.19614L4.49991 8.84051V12.4999C4.49927 12.6992 4.5585 12.8941 4.66994 13.0594C4.78138 13.2247 4.93988 13.3526 5.12491 13.4268C5.30966 13.5022 5.51283 13.5203 5.708 13.4787C5.90318 13.4372 6.08133 13.3378 6.21929 13.1936L7.80179 11.5524L10.3124 13.7499C10.4935 13.9106 10.7272 13.9995 10.9693 13.9999C11.0754 13.9998 11.1808 13.9831 11.2818 13.9505C11.4468 13.8982 11.5951 13.8035 11.7121 13.676C11.8291 13.5485 11.9107 13.3925 11.9487 13.2236L14.4855 2.18739C14.5082 2.08785 14.5034 1.98402 14.4716 1.88702C14.4398 1.79002 14.3822 1.70351 14.3049 1.63676ZM10.4837 3.88676L4.88429 7.89676L1.78429 7.28864L10.4837 3.88676ZM5.49991 12.4999V9.53239L7.04929 10.8911L5.49991 12.4999ZM10.9705 12.9999L5.80304 8.46864L13.2405 3.13801L10.9705 12.9999Z" fill="white" stroke="white" stroke-width="0.2"/>
</svg>
