<svg width="80" height="85" viewBox="0 0 80 85" fill="none" xmlns="http://www.w3.org/2000/svg">
<ellipse cx="40" cy="39" rx="40" ry="39" fill="#0891B2"/>
<path d="M37.688 17.4572H39.656V28.6572H37.816V20.6732L34.408 26.3052H34.184L30.776 20.6572V28.6572H28.936V17.4572H30.92L34.296 23.0572L37.688 17.4572ZM46.0171 28.6572H41.8891V17.4572H43.7291V21.2972H46.0171C47.0731 21.2972 47.9531 21.6546 48.6571 22.3692C49.3718 23.0732 49.7291 23.9426 49.7291 24.9772C49.7291 26.0119 49.3718 26.8866 48.6571 27.6012C47.9531 28.3052 47.0731 28.6572 46.0171 28.6572ZM52.6571 28.6572H50.8171V17.4572H52.6571V28.6572ZM43.7291 23.0252V26.9292H46.0171C46.5611 26.9292 47.0091 26.7479 47.3611 26.3852C47.7131 26.0119 47.8891 25.5426 47.8891 24.9772C47.8891 24.4119 47.7131 23.9479 47.3611 23.5852C47.0091 23.2119 46.5611 23.0252 46.0171 23.0252H43.7291ZM20.7726 48.8492C21.914 49.3932 22.4846 50.2946 22.4846 51.5532C22.4846 52.5346 22.1113 53.3346 21.3646 53.9532C20.6286 54.5612 19.6633 54.8652 18.4686 54.8652C16.4206 54.8652 15.066 54.0012 14.4046 52.2732L15.9886 51.3612C16.3193 52.5452 17.146 53.1372 18.4686 53.1372C19.162 53.1372 19.6953 52.9879 20.0686 52.6892C20.4526 52.3906 20.6446 51.9799 20.6446 51.4572C20.6446 50.9452 20.4633 50.5399 20.1006 50.2412C19.738 49.9426 19.2366 49.7932 18.5966 49.7932H17.2366V48.1292H18.2286C18.858 48.1292 19.3486 47.9852 19.7006 47.6972C20.0526 47.4092 20.2286 47.0252 20.2286 46.5452C20.2286 46.0546 20.0686 45.6706 19.7486 45.3932C19.4286 45.1159 18.97 44.9772 18.3726 44.9772C17.2633 44.9772 16.5166 45.4839 16.1326 46.4972L14.5646 45.5852C15.29 44.0279 16.5593 43.2492 18.3726 43.2492C19.4606 43.2492 20.3513 43.5479 21.0446 44.1452C21.7273 44.7319 22.0686 45.4999 22.0686 46.4492C22.0686 47.5052 21.6366 48.3052 20.7726 48.8492ZM32.4141 43.4572V52.8972H33.6141V56.8012H31.7741V54.6572H24.9741V56.8012H23.1341V52.8972H24.1741C24.8248 52.0546 25.1501 50.7692 25.1501 49.0412V43.4572H32.4141ZM26.1901 52.8972H30.5741V45.1852H26.9901V49.0732C26.9901 50.7372 26.7235 52.0119 26.1901 52.8972ZM37.0573 49.8732V52.8972H42.0173V54.6572H35.2173V43.4572H41.9373V45.2172H37.0573V48.1292H41.5373V49.8732H37.0573ZM48.9039 54.8652C47.2186 54.8652 45.8212 54.3106 44.7119 53.2012C43.6026 52.0706 43.0479 50.6892 43.0479 49.0572C43.0479 47.4146 43.6026 46.0386 44.7119 44.9292C45.8106 43.8092 47.2079 43.2492 48.9039 43.2492C49.9172 43.2492 50.8506 43.4892 51.7039 43.9692C52.5679 44.4492 53.2399 45.0999 53.7199 45.9212L52.1199 46.8492C51.8212 46.2946 51.3839 45.8572 50.8079 45.5372C50.2426 45.2066 49.6079 45.0412 48.9039 45.0412C47.7199 45.0412 46.7492 45.4199 45.9919 46.1772C45.2559 46.9239 44.8879 47.8839 44.8879 49.0572C44.8879 50.2306 45.2559 51.1906 45.9919 51.9372C46.7492 52.6946 47.7199 53.0732 48.9039 53.0732C49.6079 53.0732 50.2479 52.9132 50.8239 52.5932C51.3999 52.2626 51.8319 51.8199 52.1199 51.2652L53.7199 52.1772C53.2612 52.9879 52.5946 53.6439 51.7199 54.1452C50.8772 54.6252 49.9386 54.8652 48.9039 54.8652ZM57.0885 47.2972H59.3765C60.4325 47.2972 61.3125 47.6546 62.0165 48.3692C62.7312 49.0732 63.0885 49.9426 63.0885 50.9772C63.0885 52.0226 62.7312 52.8972 62.0165 53.6012C61.3125 54.3052 60.4325 54.6572 59.3765 54.6572H55.2485V43.4572H57.0885V47.2972ZM57.0885 52.9292H59.3765C59.9205 52.9292 60.3685 52.7479 60.7205 52.3852C61.0725 52.0119 61.2485 51.5426 61.2485 50.9772C61.2485 50.4119 61.0725 49.9479 60.7205 49.5852C60.3685 49.2119 59.9205 49.0252 59.3765 49.0252H57.0885V52.9292ZM66.286 51.1372H64.926L64.574 46.6572V43.4572H66.654V46.6572L66.286 51.1372ZM65.614 52.4492C65.9447 52.4492 66.2274 52.5666 66.462 52.8012C66.6967 53.0359 66.814 53.3186 66.814 53.6492C66.814 53.9799 66.6967 54.2626 66.462 54.4972C66.2274 54.7319 65.9447 54.8492 65.614 54.8492C65.2834 54.8492 65.0007 54.7319 64.766 54.4972C64.5314 54.2626 64.414 53.9799 64.414 53.6492C64.414 53.3186 64.526 53.0359 64.75 52.8012C64.9847 52.5666 65.2727 52.4492 65.614 52.4492Z" fill="white"/>
<path d="M40 85L29.6077 74.5L50.3923 74.5L40 85Z" fill="#0891B2"/>
</svg>
