<svg width="48" height="48" viewBox="0 0 48 48" fill="none" xmlns="http://www.w3.org/2000/svg">
<path d="M22 20.5397L14 6.67969" stroke="#0891B2" stroke-width="3" stroke-linecap="round" stroke-linejoin="round"/>
<path d="M22 27.46L14 41.32" stroke="#0891B2" stroke-width="3" stroke-linecap="round" stroke-linejoin="round"/>
<path d="M24 44V40" stroke="#0891B2" stroke-width="3" stroke-linecap="round" stroke-linejoin="round"/>
<path d="M24 4V8" stroke="#0891B2" stroke-width="3" stroke-linecap="round" stroke-linejoin="round"/>
<path d="M28 24H44" stroke="#0891B2" stroke-width="3" stroke-linecap="round" stroke-linejoin="round"/>
<path d="M34 41.3204L32 37.8604" stroke="#0891B2" stroke-width="3" stroke-linecap="round" stroke-linejoin="round"/>
<path d="M34 6.67969L32 10.1397" stroke="#0891B2" stroke-width="3" stroke-linecap="round" stroke-linejoin="round"/>
<path d="M4 24H8" stroke="#0891B2" stroke-width="3" stroke-linecap="round" stroke-linejoin="round"/>
<path d="M41.3201 34L37.8601 32" stroke="#0891B2" stroke-width="3" stroke-linecap="round" stroke-linejoin="round"/>
<path d="M41.3201 14L37.8601 16" stroke="#0891B2" stroke-width="3" stroke-linecap="round" stroke-linejoin="round"/>
<path d="M6.67993 34L10.1399 32" stroke="#0891B2" stroke-width="3" stroke-linecap="round" stroke-linejoin="round"/>
<path d="M6.67993 14L10.1399 16" stroke="#0891B2" stroke-width="3" stroke-linecap="round" stroke-linejoin="round"/>
<path d="M24 28C26.2091 28 28 26.2091 28 24C28 21.7909 26.2091 20 24 20C21.7909 20 20 21.7909 20 24C20 26.2091 21.7909 28 24 28Z" stroke="#0891B2" stroke-width="3" stroke-linecap="round" stroke-linejoin="round"/>
<path d="M24 40C32.8366 40 40 32.8366 40 24C40 15.1634 32.8366 8 24 8C15.1634 8 8 15.1634 8 24C8 32.8366 15.1634 40 24 40Z" stroke="#0891B2" stroke-width="3" stroke-linecap="round" stroke-linejoin="round"/>
</svg>
