<svg width="74" height="74" viewBox="0 0 74 74" fill="none" xmlns="http://www.w3.org/2000/svg">
<path d="M1 37C1 17.1178 17.1178 1 37 1C56.8823 1 73 17.1178 73 37C73 56.8823 56.8823 73 37 73C17.1178 73 1 56.8823 1 37Z" fill="white"/>
<path d="M37 0.5C57.1584 0.5 73.5 16.8416 73.5 37C73.5 57.1584 57.1584 73.5 37 73.5C16.8416 73.5 0.5 57.1584 0.5 37C0.5 16.8416 16.8416 0.5 37 0.5Z" stroke="black" stroke-opacity="0.08"/>
<path d="M5 37C5 19.3269 19.3269 5 37 5C54.6731 5 69 19.3269 69 37C69 54.6731 54.6731 69 37 69C19.3269 69 5 54.6731 5 37Z" fill="#F5F5F5"/>
<path d="M37 4.5C54.9493 4.5 69.5 19.0507 69.5 37C69.5 54.9493 54.9493 69.5 37 69.5C19.0507 69.5 4.5 54.9493 4.5 37C4.5 19.0507 19.0507 4.5 37 4.5Z" stroke="black" stroke-opacity="0.08"/>
<path d="M37.75 23.5H30.7C28.1798 23.5 26.9196 23.5 25.957 23.9905C25.1103 24.4219 24.4219 25.1103 23.9905 25.957C23.5 26.9196 23.5 28.1798 23.5 30.7V43.3C23.5 45.8202 23.5 47.0804 23.9905 48.043C24.4219 48.8897 25.1103 49.5781 25.957 50.0095C26.9196 50.5 28.1798 50.5 30.7 50.5H44.5C45.895 50.5 46.5924 50.5 47.1647 50.3467C48.7176 49.9306 49.9306 48.7176 50.3467 47.1647C50.5 46.5924 50.5 45.895 50.5 44.5M47.5 31V22M43 26.5H52M34.75 31.75C34.75 33.4069 33.4069 34.75 31.75 34.75C30.0931 34.75 28.75 33.4069 28.75 31.75C28.75 30.0931 30.0931 28.75 31.75 28.75C33.4069 28.75 34.75 30.0931 34.75 31.75ZM41.4851 36.8772L28.7967 48.4121C28.083 49.0609 27.7262 49.3853 27.6946 49.6663C27.6673 49.9099 27.7607 50.1515 27.9448 50.3133C28.1572 50.5 28.6394 50.5 29.6039 50.5H43.684C45.8427 50.5 46.9221 50.5 47.7699 50.1373C48.8342 49.6821 49.6821 48.8342 50.1373 47.7699C50.5 46.9221 50.5 45.8427 50.5 43.684C50.5 42.9576 50.5 42.5945 50.4206 42.2562C50.3208 41.8312 50.1295 41.433 49.8599 41.0896C49.6454 40.8163 49.3618 40.5894 48.7946 40.1357L44.5987 36.779C44.0311 36.3249 43.7473 36.0978 43.4347 36.0177C43.1592 35.947 42.8693 35.9562 42.5988 36.044C42.2919 36.1437 42.023 36.3882 41.4851 36.8772Z" stroke="#A4A7AE" stroke-width="3" stroke-linecap="round" stroke-linejoin="round"/>
</svg>
