<svg xmlns="http://www.w3.org/2000/svg" width="61" height="61" fill="none" viewBox="0 0 61 61"><g clip-path="url(#a)"><mask id="b" width="61" height="61" x="0" y="0" maskUnits="userSpaceOnUse" style="mask-type:luminance"><path fill="#fff" d="M54.9 0H6.1A6.1 6.1 0 0 0 0 6.1v48.8A6.1 6.1 0 0 0 6.1 61h48.8a6.1 6.1 0 0 0 6.1-6.1V6.1A6.1 6.1 0 0 0 54.9 0"/></mask><g mask="url(#b)"><path fill="#0e93b9" d="M54.9 0H6.1A6.1 6.1 0 0 0 0 6.1v48.8A6.1 6.1 0 0 0 6.1 61h48.8a6.1 6.1 0 0 0 6.1-6.1V6.1A6.1 6.1 0 0 0 54.9 0"/><path fill="#fff" fill-rule="evenodd" d="M17.401 45.333c.653-.35 1.208.21 1.156.75-.058.54-.457.785-.859.792-.543.01-.95-.434-.957-.985.008-.739.549-1.176 1.149-1.193 1.003.05 1.39.931 1.362 1.545-.034.767-.787 1.471-1.552 1.483l.01-.28c.66-.073 1.29-.53 1.3-1.25-.008-.581-.325-1.236-1.126-1.275-.456-.028-.974.401-.982.953-.002.409.276.83.79.847.375.002.713-.275.729-.664.037-.468-.347-.932-1.02-.723m26.187-.006c-.654-.35-1.209.21-1.157.75.059.54.457.785.86.792.543.01.95-.434.957-.985-.008-.739-.55-1.176-1.15-1.193-1.003.05-1.39.931-1.362 1.545.035.767.788 1.471 1.552 1.483l-.01-.279c-.66-.074-1.29-.53-1.3-1.25.008-.582.325-1.237 1.127-1.276.455-.028.973.401.982.954.001.408-.277.828-.79.846-.376.002-.714-.275-.73-.664-.036-.468.347-.932 1.02-.723" clip-rule="evenodd"/><path fill="#fff" fill-rule="evenodd" d="M17.7 47.724c-1.463.03-2.156-1.21-2.092-2.046.081-1.4 1.343-2.41 2.619-2.372 2.26.097 3.09 1.723 2.96 3.167-.133 1.678-1.713 3.2-3.425 3.223-2.656.04-4.345-2.107-4.313-4.324.069-1.935 1.633-4.247 4.799-4.325l-.013.812c-2.684.075-3.796 1.842-3.959 3.554-.064 1.436.986 3.474 3.405 3.583 1.651-.017 2.773-1.183 2.92-2.506.119-1.255-.48-2.592-2.296-2.746-1.035-.02-2.16.648-2.311 1.902-.056.777.571 1.782 1.717 1.8zm25.588-.004c1.463.03 2.157-1.21 2.093-2.047-.082-1.4-1.343-2.41-2.62-2.371-2.26.096-3.09 1.722-2.96 3.167.133 1.678 1.713 3.198 3.426 3.223 2.656.04 4.344-2.108 4.312-4.325-.068-1.935-1.633-4.246-4.798-4.325l.012.813c2.685.074 3.797 1.842 3.96 3.553.064 1.436-.987 3.475-3.406 3.583-1.65-.017-2.773-1.183-2.919-2.506-.12-1.254.48-2.591 2.296-2.746 1.034-.02 2.16.648 2.31 1.902.056.777-.571 1.783-1.716 1.8z" clip-rule="evenodd"/><path fill="#fff" fill-rule="evenodd" d="M18.248 41.047c3.862.25 5.39 3.48 5.28 5.765-.26 2.52-2.193 5.686-6.442 5.723-4.69-.032-7.122-4.03-7.122-7.256-.025-2.567.947-7.228 7.599-7.32l12.944-.036-.009 1.273-12.974-.008c-4.038-.095-6.155 2.814-6.202 6.063.158 4.161 3.164 6.46 5.988 6.334 4.197-.3 5.315-3.247 5.489-4.87.117-2.148-1.42-4.727-4.564-4.856z" clip-rule="evenodd"/><path fill="#fff" fill-rule="evenodd" d="M42.74 41.042c-3.862.25-5.39 3.48-5.28 5.765.26 2.52 2.193 5.686 6.443 5.723 4.688-.032 7.121-4.03 7.121-7.256.025-2.567-.947-7.228-7.599-7.32l-12.944-.036.009 1.273 12.974-.008c4.038-.095 6.155 2.815 6.202 6.063-.158 4.161-3.164 6.46-5.988 6.334-4.197-.3-5.315-3.247-5.489-4.87-.117-2.148 1.42-4.727 4.564-4.856z" clip-rule="evenodd"/><path fill="#fff" fill-rule="evenodd" d="M22.843 48.596c.95-3.278.207-5.834-3.523-7.39 4.041 1.054 6.915 1.77 11.171 1.687 4.246.082 7.118-.634 11.153-1.687-3.73 1.556-4.472 4.112-3.523 7.39-.725-.175-1.284-.846-1.597-1.57-.524 1.1-1.486 1.61-2.188 1.592-.898-.022-1.493-.57-1.904-1.428-.291.855-1.167 1.442-1.926 1.442s-1.507-.587-1.951-1.488c-.41.857-1.028 1.451-1.927 1.473-.701.019-1.617-.547-2.142-1.647-.312.723-.918 1.45-1.643 1.626m14.954-3.745c.227-.893.731-1.634 1.366-2.304-.586.063-.978.265-1.263.657a1.62 1.62 0 0 0-.103 1.647m-.068 3.019c-.276-.873-.306-1.801-.018-2.801-.465.229-.74.836-.735 1.354-.001.532.275 1.08.753 1.447m-5.062-1.214c.3.75.664 1.51 1.703 1.644.95.048 1.812-1.018 2.142-2.148.292-1.035.38-2.02.38-3.105l-.34.037c-.027 1.1-.145 2.098-.404 2.944-.236.807-1.022 1.882-1.786 1.827-.948-.092-1.247-1.096-1.48-1.96q-.06.402-.215.761m2.04-3.231c-.648-.053-1.246.793-1.334 1.89-.089 1.095.366 2.026 1.014 2.079.649.052 1.246-.794 1.335-1.89s-.366-2.027-1.015-2.08m-4.18.039c.65 0 1.179.89 1.179 1.99s-.528 1.991-1.179 1.991c-.65 0-1.178-.891-1.178-1.99 0-1.1.527-1.991 1.178-1.991m-.021 4.87-.007-.001h-.006c-.952-.02-1.607-1.014-1.913-2.082-.246-.806-.232-1.8-.144-2.713l.36.016c-.043.867-.097 1.754.164 2.6.246.916.829 1.713 1.54 1.752.729-.04 1.328-.836 1.58-1.752.269-.846.213-1.733.17-2.6l.368-.016c.091.912.105 1.907-.147 2.713-.315 1.069-.987 2.062-1.965 2.082m-4.172-4.901c.648-.053 1.246.794 1.334 1.89s-.366 2.027-1.014 2.079c-.649.052-1.246-.794-1.335-1.89s.366-2.027 1.015-2.079m2.056 3.264c-.3.75-.665 1.51-1.704 1.643-.949.049-1.812-1.017-2.142-2.147-.292-1.035-.38-2.02-.38-3.105l.34.037c.027 1.099.146 2.098.404 2.944.237.807 1.022 1.882 1.787 1.827.947-.092 1.246-1.096 1.48-1.96q.06.401.215.761m-5.078 1.221c.277-.872.306-1.8.019-2.8.464.23.74.836.735 1.354 0 .532-.275 1.08-.754 1.447m-.068-3.018c-.227-.893-.73-1.634-1.365-2.303.586.061.978.264 1.262.656.377.553.333 1.197.104 1.647m-6.812-6.68-.005-.75c.02-.264-.155-.433-.377-.635l-.72-.76c-.194-.186-.259-.36-.263-.64l.001-2.481c.013-.339.14-.602.663-.602h14.78l-.01 1.05-14.094.028c-.215.004-.271.09-.271.307l-.001 1.106c-.002.15.032.217.295.212l14.072-.001-.005.686-13.804.001c-.231.001-.306.12-.167.248l.739.672 13.233.007v.448l-12.682-.023c-.215.006-.334.034-.33.245l.006.483.33.27z" clip-rule="evenodd"/><path fill="#fff" fill-rule="evenodd" d="m44.586 38.219.005-.75c-.02-.264.156-.433.377-.635l.72-.76c.194-.186.259-.36.263-.64l-.001-2.481c-.012-.339-.14-.602-.663-.602h-14.78l.01 1.05 14.094.028c.215.004.271.09.272.307v1.106c.002.15-.032.217-.295.212l-14.072-.001.005.686 13.804.001c.231.001.306.12.167.248l-.739.672-13.233.007v.448l12.683-.023c.215.006.333.034.33.245l-.007.483-.33.27zM22.274 49.04h16.481l1.337 1.732H21.4zm8.316.362c.328 0 .595.24.595.536s-.267.535-.595.535c-.329 0-.595-.24-.595-.535s.266-.536.595-.536m1.188.085h1.004a.6.6 0 0 0-.082.304c0 .156.061.302.167.427h-1.121a.62.62 0 0 0 .145-.387.6.6 0 0 0-.113-.344m2.174-.057c.329 0 .595.24.595.536 0 .295-.266.535-.595.535s-.595-.24-.595-.535.266-.536.595-.536m1.175.057h.96a.63.63 0 0 0-.087.318c0 .15.056.29.153.413h-1.111a.66.66 0 0 0 .167-.427.6.6 0 0 0-.082-.304m2.031-.07c.329 0 .595.24.595.535s-.266.536-.595.536-.595-.24-.595-.536c0-.295.267-.535.595-.535M23.88 49.37c.329 0 .595.24.595.536s-.266.536-.595.536-.595-.24-.595-.536.266-.535.595-.535m1.071.117h.994a.6.6 0 0 0-.098.33c0 .146.053.282.148.401H24.94a.67.67 0 0 0 .118-.374.67.67 0 0 0-.107-.357m2.163-.056c.33 0 .596.24.596.535s-.267.536-.596.536-.594-.24-.594-.536c0-.295.266-.535.594-.535m1.177.056h1.028a.6.6 0 0 0-.113.344c0 .14.052.271.145.387h-1.11a.65.65 0 0 0 .148-.4.6.6 0 0 0-.099-.33" clip-rule="evenodd"/><path fill="#fff" d="M19.996 51.898H18.92v12.318h1.076zm22.118-.008h-1.076v12.32h1.076z"/><path fill="#fff" fill-rule="evenodd" d="m37.453 64.202-.004-10.83c.008-.905.404-1.495 1.325-1.523.912.032 1.349.574 1.378 1.527l-.004 10.829-.613.006-.006-10.527c-.02-.428-.292-.824-.803-.852-.632-.06-.818.488-.831.936v10.435zm-13.878-.014.004-10.831c-.007-.905-.403-1.495-1.324-1.523-.913.033-1.35.574-1.378 1.527l.004 10.83.613.006.006-10.528c.02-.428.291-.823.802-.851.633-.06.819.487.832.935v10.435zm4.157-.008.004-10.831c-.008-.905-.425-1.495-1.397-1.523-.962.033-1.423.574-1.454 1.527l.005 10.83.646.006.007-10.527c.021-.429.307-.824.846-.852.667-.06.864.487.877.935V64.18zm5.578.017-.003-10.83c.007-.905.425-1.495 1.397-1.523.962.032 1.422.574 1.454 1.527l-.005 10.83-.646.005L35.5 53.68c-.021-.428-.307-.824-.846-.852-.668-.06-.864.488-.877.936v10.435zm-4.34.046-.004-10.83c.007-.872.395-1.451 1.293-1.518h.001c.183-.013.351-.008.534-.002.87.08 1.27.67 1.277 1.529l-.004 10.83-.467.001V53.818c-.013-.448-.22-.964-.881-.957l-.46.009c-.628.019-.81.503-.823.939v10.435z" clip-rule="evenodd"/><path fill="#fff" d="M29.492 10.776H39q3.304 0 5.86 1.232 2.558 1.233 3.965 3.495 1.408 2.265 1.408 5.3 0 3.037-1.408 5.3t-3.965 3.495T39 30.83h-9.51zm9.279 15.528q2.586 0 4.137-1.461 1.58-1.46 1.58-4.04 0-2.578-1.58-4.04-1.551-1.46-4.137-1.46H35.18v11zM23.039 18.82q2.498.518 3.818 2.069 1.35 1.522 1.35 3.706a6 6 0 0 1-.976 3.304q-.948 1.523-2.929 2.47-1.953.92-4.852.92-2.124 0-4.22-.517-2.068-.517-3.59-1.465l2.068-4.281a9.3 9.3 0 0 0 2.641 1.235q1.493.432 2.929.431 1.464 0 2.325-.546.862-.545.862-1.55 0-1.954-3.073-1.954H17.01V19.05l3.589-3.878h-7.925v-4.396h14.528v3.563z"/></g></g><defs><clipPath id="a"><path fill="#fff" d="M0 0h61v61H0z"/></clipPath></defs></svg>