<svg width="15" height="15" viewBox="0 0 15 15" fill="none" xmlns="http://www.w3.org/2000/svg">
<path d="M8.55475 10.379C8.69243 10.4422 8.84755 10.4567 8.99454 10.42C9.14154 10.3832 9.27164 10.2975 9.36342 10.177L9.60008 9.86699C9.72428 9.7014 9.88532 9.56699 10.0705 9.47442C10.2556 9.38185 10.4598 9.33366 10.6667 9.33366H12.6667C13.0204 9.33366 13.3595 9.47414 13.6096 9.72418C13.8596 9.97423 14.0001 10.3134 14.0001 10.667V12.667C14.0001 13.0206 13.8596 13.3598 13.6096 13.6098C13.3595 13.8598 13.0204 14.0003 12.6667 14.0003C9.48415 14.0003 6.4319 12.736 4.18147 10.4856C1.93103 8.23517 0.666748 5.18292 0.666748 2.00033C0.666748 1.6467 0.807224 1.30756 1.05727 1.05752C1.30732 0.807468 1.64646 0.666992 2.00008 0.666992H4.00008C4.3537 0.666992 4.69284 0.807468 4.94289 1.05752C5.19294 1.30756 5.33341 1.6467 5.33341 2.00033V4.00033C5.33341 4.20732 5.28522 4.41147 5.19265 4.59661C5.10008 4.78175 4.96568 4.9428 4.80008 5.06699L4.48808 5.30099C4.36569 5.39444 4.27943 5.52738 4.24394 5.67723C4.20846 5.82707 4.22594 5.98458 4.29341 6.12299C5.20454 7.97357 6.70303 9.47019 8.55475 10.379Z" stroke="white" stroke-width="1.33333" stroke-linecap="round" stroke-linejoin="round"/>
</svg>
