<svg width="80" height="80" viewBox="0 0 80 80" fill="none" xmlns="http://www.w3.org/2000/svg">
<path d="M66.6667 26.667H13.3333C11.4924 26.667 10 28.1594 10 30.0003V36.667C10 38.5079 11.4924 40.0003 13.3333 40.0003H66.6667C68.5076 40.0003 70 38.5079 70 36.667V30.0003C70 28.1594 68.5076 26.667 66.6667 26.667Z" stroke="white" stroke-width="3" stroke-linecap="round" stroke-linejoin="round"/>
<path d="M40 26.667V70.0003" stroke="white" stroke-width="3" stroke-linecap="round" stroke-linejoin="round"/>
<path d="M63.3332 40V63.3333C63.3332 65.1014 62.6308 66.7971 61.3806 68.0474C60.1303 69.2976 58.4346 70 56.6665 70H23.3332C21.5651 70 19.8694 69.2976 18.6191 68.0474C17.3689 66.7971 16.6665 65.1014 16.6665 63.3333V40" stroke="white" stroke-width="3" stroke-linecap="round" stroke-linejoin="round"/>
<path d="M24.9998 26.6671C22.7897 26.6671 20.6701 25.7892 19.1073 24.2264C17.5445 22.6636 16.6665 20.544 16.6665 18.3338C16.6665 16.1237 17.5445 14.0041 19.1073 12.4413C20.6701 10.8785 22.7897 10.0005 24.9998 10.0005C28.2155 9.94446 31.3666 11.5047 34.0423 14.4777C36.718 17.4507 38.7941 21.6985 39.9998 26.6671C41.2056 21.6985 43.2817 17.4507 45.9574 14.4777C48.6331 11.5047 51.7842 9.94446 54.9998 10.0005C57.21 10.0005 59.3296 10.8785 60.8924 12.4413C62.4552 14.0041 63.3332 16.1237 63.3332 18.3338C63.3332 20.544 62.4552 22.6636 60.8924 24.2264C59.3296 25.7892 57.21 26.6671 54.9998 26.6671" stroke="white" stroke-width="3" stroke-linecap="round" stroke-linejoin="round"/>
</svg>
