<svg width="8" height="8" viewBox="0 0 8 8" fill="none" xmlns="http://www.w3.org/2000/svg">
<path fill-rule="evenodd" clip-rule="evenodd" d="M2.72786 3.51758L0.163904 0.953626C-0.0544413 0.735281 -0.0544414 0.381273 0.163904 0.162927C0.38225 -0.055418 0.736257 -0.0554181 0.954603 0.162927L3.51855 2.72688L6.08251 0.162928C6.30085 -0.0554179 6.65486 -0.0554181 6.87321 0.162927C7.09155 0.381273 7.09155 0.735281 6.87321 0.953626L4.30925 3.51758L6.87321 6.08153C7.09155 6.29988 7.09155 6.65388 6.87321 6.87223C6.65486 7.09057 6.30085 7.09057 6.08251 6.87223L3.51855 4.30828L0.954603 6.87223C0.736257 7.09057 0.38225 7.09057 0.163904 6.87223C-0.0544414 6.65388 -0.0544414 6.29988 0.163904 6.08153L2.72786 3.51758Z" fill="white"/>
</svg>
