<svg width="48" height="48" viewBox="0 0 48 48" fill="none" xmlns="http://www.w3.org/2000/svg">
<path d="M34 24V32C34 32.5304 33.7893 33.0391 33.4142 33.4142C33.0391 33.7893 32.5304 34 32 34H24M34 6H38C39.0609 6 40.0783 6.42143 40.8284 7.17157C41.5786 7.92172 42 8.93913 42 10V14M34 16V14M42 34V38C42 39.0609 41.5786 40.0783 40.8284 40.8284C40.0783 41.5786 39.0609 42 38 42H34M6 14V10C6 8.93913 6.42143 7.92172 7.17157 7.17157C7.92172 6.42143 8.93913 6 10 6H14M14 34H14.02M14 42H10C8.93913 42 7.92172 41.5786 7.17157 40.8284C6.42143 40.0783 6 39.0609 6 38V34M16 14H22C23.1046 14 24 14.8954 24 16V22C24 23.1046 23.1046 24 22 24H16C14.8954 24 14 23.1046 14 22V16C14 14.8954 14.8954 14 16 14Z" stroke="#0891B2" stroke-width="3" stroke-linecap="round" stroke-linejoin="round"/>
</svg>
