<svg width="48" height="48" viewBox="0 0 48 48" fill="none" xmlns="http://www.w3.org/2000/svg">
<path d="M29.2438 35.7944L7.88384 29.9684M17.9998 16.0004C14.3918 21.4204 10.0598 22.9204 4.83384 23.8964C4.66048 23.9281 4.49835 24.0044 4.36345 24.1178C4.22856 24.2312 4.12554 24.3778 4.06457 24.5431C4.0036 24.7085 3.98678 24.8869 4.01576 25.0607C4.04474 25.2345 4.11853 25.3978 4.22984 25.5344L18.8698 43.3004C19.1672 43.6163 19.5592 43.8269 19.9867 43.9004C20.4142 43.974 20.854 43.9067 21.2398 43.7084C25.4698 40.8104 31.9998 33.5844 31.9998 30.0004M36.7518 5.24445C37.1461 4.85022 37.6141 4.5375 38.1292 4.32414C38.6443 4.11079 39.1963 4.00098 39.7538 4.00098C40.3114 4.00098 40.8634 4.11079 41.3785 4.32414C41.8936 4.5375 42.3616 4.85022 42.7558 5.24445C43.1501 5.63867 43.4628 6.10669 43.6761 6.62178C43.8895 7.13686 43.9993 7.68892 43.9993 8.24645C43.9993 8.80397 43.8895 9.35603 43.6761 9.87112C43.4628 10.3862 43.1501 10.8542 42.7558 11.2484L34.7198 19.2864C34.5324 19.474 34.4271 19.7283 34.4271 19.9934C34.4271 20.2586 34.5324 20.5129 34.7198 20.7004L36.6078 22.5884C37.5116 23.4924 38.0193 24.7182 38.0193 25.9964C38.0193 27.2747 37.5116 28.5005 36.6078 29.4044L34.7198 31.2924C34.5323 31.4799 34.278 31.5852 34.0128 31.5852C33.7477 31.5852 33.4934 31.4799 33.3058 31.2924L16.7078 14.6964C16.5204 14.5089 16.4151 14.2546 16.4151 13.9894C16.4151 13.7243 16.5204 13.47 16.7078 13.2824L18.5958 11.3944C19.4997 10.4907 20.7256 9.98296 22.0038 9.98296C23.2821 9.98296 24.5079 10.4907 25.4118 11.3944L27.2998 13.2824C27.4874 13.4699 27.7417 13.5752 28.0068 13.5752C28.272 13.5752 28.5263 13.4699 28.7138 13.2824L36.7518 5.24445Z" stroke="#0891B2" stroke-width="3" stroke-linecap="round" stroke-linejoin="round"/>
</svg>
