<svg width="48" height="48" viewBox="0 0 48 48" fill="none" xmlns="http://www.w3.org/2000/svg">
<path d="M42.0001 42.0001H16.0001C15.4727 42.0013 14.9503 41.8982 14.4629 41.6968C13.9755 41.4953 13.5327 41.1994 13.1601 40.8261L5.17212 32.8281C4.42224 32.078 4.00098 31.0608 4.00098 30.0001C4.00098 28.9395 4.42224 27.9223 5.17212 27.1721L25.1721 7.17215C25.5436 6.80054 25.9846 6.50576 26.47 6.30464C26.9554 6.10352 27.4757 6 28.0011 6C28.5265 6 29.0468 6.10352 29.5322 6.30464C30.0176 6.50576 30.4587 6.80054 30.8301 7.17215L42.8281 19.1721C43.578 19.9223 43.9993 20.9395 43.9993 22.0001C43.9993 23.0608 43.578 24.078 42.8281 24.8281L25.6681 42.0001M10.1641 22.1801L27.8201 39.8361" stroke="#0891B2" stroke-width="3" stroke-linecap="round" stroke-linejoin="round"/>
</svg>
