<svg width="48" height="48" viewBox="0 0 48 48" fill="none" xmlns="http://www.w3.org/2000/svg">
<path d="M28 4V16C27.9997 16.671 28.1682 17.3312 28.49 17.92L39.5099 38.08C39.8433 38.6892 40.0123 39.3747 40.0003 40.0691C39.9883 40.7634 39.7957 41.4427 39.4416 42.04C39.0874 42.6373 38.5838 43.1322 37.9804 43.4759C37.3769 43.8195 36.6944 44.0002 36 44H11.9999C11.3055 44.0002 10.623 43.8195 10.0195 43.4759C9.41608 43.1322 8.9125 42.6373 8.55833 42.04C8.20416 41.4427 8.01161 40.7634 7.99962 40.0691C7.98763 39.3747 8.15662 38.6892 8.48995 38.08L19.5099 17.92C19.8317 17.3312 20.0002 16.671 19.9999 16V4M12.906 30H35.094M17 4H31" stroke="#0891B2" stroke-width="3" stroke-linecap="round" stroke-linejoin="round"/>
</svg>
