<svg width="48" height="48" viewBox="0 0 48 48" fill="none" xmlns="http://www.w3.org/2000/svg">
<path d="M28 26V17C28 14 30 14 30 10C30 8.4087 29.3679 6.88258 28.2426 5.75736C27.1174 4.63214 25.5913 4 24 4C22.4087 4 20.8826 4.63214 19.7574 5.75736C18.6321 6.88258 18 8.4087 18 10C18 14 20 14 20 17V26M10 44H38M40 31C40 29.6739 39.4732 28.4021 38.5355 27.4645C37.5979 26.5268 36.3261 26 35 26H13C11.6739 26 10.4021 26.5268 9.46447 27.4645C8.52678 28.4021 8 29.6739 8 31V34C8 34.5304 8.21071 35.0391 8.58579 35.4142C8.96086 35.7893 9.46957 36 10 36H38C38.5304 36 39.0391 35.7893 39.4142 35.4142C39.7893 35.0391 40 34.5304 40 34V31Z" stroke="#0891B2" stroke-width="3" stroke-linecap="round" stroke-linejoin="round"/>
</svg>
