<svg width="48" height="48" viewBox="0 0 48 48" fill="none" xmlns="http://www.w3.org/2000/svg">
<path d="M10 34C10 27.6348 12.5286 21.5303 17.0294 17.0294C21.5303 12.5286 27.6348 10 34 10M10 34C7.79086 34 6 35.7909 6 38C6 40.2091 7.79086 42 10 42C12.2091 42 14 40.2091 14 38C14 35.7909 12.2091 34 10 34ZM34 10C34 12.2091 35.7909 14 38 14C40.2091 14 42 12.2091 42 10C42 7.79086 40.2091 6 38 6C35.7909 6 34 7.79086 34 10ZM24.068 25.362C23.9959 25.1811 23.9784 24.9831 24.0177 24.7924C24.0569 24.6016 24.1512 24.4266 24.2889 24.2889C24.4266 24.1512 24.6016 24.0569 24.7924 24.0177C24.9831 23.9784 25.1811 23.9959 25.362 24.068L43.362 31.068C43.555 31.1434 43.7198 31.2769 43.8336 31.45C43.9474 31.6231 44.0047 31.8273 43.9974 32.0344C43.9902 32.2415 43.9188 32.4412 43.7932 32.6059C43.6675 32.7706 43.4938 32.8923 43.296 32.954L36.408 35.09C36.0972 35.1861 35.8146 35.3565 35.5845 35.5865C35.3545 35.8166 35.1841 36.0992 35.088 36.41L32.954 43.296C32.8923 43.4938 32.7706 43.6675 32.6059 43.7932C32.4412 43.9188 32.2415 43.9902 32.0344 43.9974C31.8273 44.0047 31.6231 43.9474 31.45 43.8336C31.2769 43.7198 31.1434 43.555 31.068 43.362L24.068 25.362Z" stroke="#0891B2" stroke-width="3" stroke-linecap="round" stroke-linejoin="round"/>
</svg>
