<svg width="48" height="48" viewBox="0 0 48 48" fill="none" xmlns="http://www.w3.org/2000/svg">
<path d="M32 31.9998H44M42 19.9998V15.9998C41.9993 15.2984 41.8141 14.6094 41.4631 14.0021C41.112 13.3948 40.6075 12.8905 40 12.5398L26 4.5398C25.3919 4.18873 24.7021 4.00391 24 4.00391C23.2979 4.00391 22.6081 4.18873 22 4.5398L8 12.5398C7.39253 12.8905 6.88796 13.3948 6.53692 14.0021C6.18589 14.6094 6.00072 15.2984 6 15.9998V31.9998C6.00072 32.7013 6.18589 33.3902 6.53692 33.9975C6.88796 34.6048 7.39253 35.1091 8 35.4598L22 43.4598C22.6081 43.8109 23.2979 43.9957 24 43.9957C24.7021 43.9957 25.3919 43.8109 26 43.4598L30 41.1798M15 8.5398L33 18.8398M6.58 13.9998L24 23.9998M24 23.9998L41.42 13.9998M24 23.9998V43.9998" stroke="#0891B2" stroke-width="3" stroke-linecap="round" stroke-linejoin="round"/>
</svg>
