<svg width="16" height="14" viewBox="0 0 16 14" fill="none" xmlns="http://www.w3.org/2000/svg">
<path d="M0.280561 6.71989L3.95904 8.09575L5.39301 12.7236C5.45536 13.0363 5.82944 13.0988 6.07883 12.9112L8.13627 11.2227C8.32331 11.0351 8.63505 11.0351 8.88444 11.2227L12.5629 13.9118C12.8123 14.0995 13.1864 13.9744 13.2487 13.6617L15.992 0.528547C16.0543 0.215853 15.7426 -0.0968385 15.4309 0.0282391L0.280561 5.90689C-0.0935203 6.03196 -0.0935203 6.59481 0.280561 6.71989ZM5.20598 7.40781L12.4382 2.96756C12.5629 2.90502 12.6876 3.09264 12.5629 3.15518L6.63995 8.72113C6.45291 8.90875 6.26586 9.1589 6.26586 9.4716L6.07883 10.9725C6.07883 11.1601 5.76709 11.2227 5.70474 10.9725L4.95657 8.22082C4.76953 7.90813 4.89424 7.53289 5.20598 7.40781Z" fill="#4B5563"/>
</svg>
